<svg width="73" height="165" viewBox="0 0 73 165" fill="none" xmlns="http://www.w3.org/2000/svg">
<path d="M36.39 0.389996C11.78 0.389996 0.280001 16.26 0.280001 40.87V48.23H17.07V39.95C17.07 25.46 23.05 16.49 35.93 16.49C49.04 16.49 54.79 25 54.79 41.56V48.92C54.79 62.95 47.43 70.54 35.47 71H24.89V87.1H34.55C48.12 87.56 54.79 95.15 54.79 111.02V123.44C54.79 139.77 49.04 148.28 35.93 148.28C23.05 148.28 17.07 139.54 17.07 125.05V112.86H0.280001V123.9C0.280001 148.51 11.78 164.61 36.39 164.61C61.23 164.61 72.73 148.51 72.73 123.9V111.48C72.73 95.38 66.75 83.19 53.18 78.13C66.06 73.3 72.73 61.57 72.73 45.01V40.87C72.73 16.26 61.23 0.389996 36.39 0.389996Z" fill="url(#paint0_linear_36_141)"/>
<defs>
<linearGradient id="paint0_linear_36_141" x1="24" y1="-10" x2="24" y2="178" gradientUnits="userSpaceOnUse">
<stop stop-color="#26A9E0"/>
<stop offset="1" stop-color="#004AAD"/>
</linearGradient>
</defs>
</svg>
